<svg width="24" height="24" viewBox="0 0 24 24" fill="none" xmlns="http://www.w3.org/2000/svg">
<path d="M22.9995 16.768L22.9992 21.9123C22.9991 22.5775 22.5225 23.1163 21.9347 23.1159L2.06437 23.1004C1.47655 23.1 1.00004 22.5604 1.00009 21.8952L1.00084 10.867C1.00088 10.2019 1.47746 9.66302 2.06529 9.66348L4.53304 9.66539C4.77112 9.66558 5.00232 9.75609 5.18968 9.92245C5.37703 10.0888 5.50972 10.3214 5.56653 10.5831C5.62335 10.8448 5.75605 11.0774 5.94342 11.2438C6.13079 11.4101 6.36201 11.5007 6.60012 11.5008L17.4006 11.5092C17.6387 11.5094 17.8699 11.4193 18.0573 11.2532C18.2447 11.0871 18.3774 10.8547 18.4343 10.5931C18.4911 10.3315 18.6238 10.0991 18.8112 9.93303C18.9986 9.76696 19.2298 9.67681 19.4679 9.67699L21.9356 9.67891C22.5235 9.67936 23 10.219 22.9999 10.8841L22.9996 15.0118" stroke="#F45800" stroke-miterlimit="10" stroke-linecap="round" stroke-linejoin="round"/>
<path d="M2.1167 5.3028L2.10691 4.62718C2.09481 3.79165 2.68297 3.10321 3.42066 3.0895L14.4106 2.88527C14.6647 2.88055 14.9123 2.79384 15.1244 2.63531C15.3365 2.47677 15.5043 2.253 15.608 1.99025C15.7118 1.72751 15.8796 1.50375 16.0917 1.34523C16.3038 1.1867 16.5514 1.1 16.8055 1.09528L20.5977 1.0248C21.3354 1.01109 21.9432 1.67735 21.9553 2.51294L22.0257 7.37366" stroke="#F45800" stroke-miterlimit="10" stroke-linecap="round" stroke-linejoin="round"/>
<path d="M2.15172 9.68417L2.14876 9.68427L2.14856 7.61989C2.14849 6.78424 2.74647 6.1067 3.48421 6.10661L14.4757 6.1053C14.7298 6.10528 14.9786 6.02315 15.193 5.86857C15.4073 5.71398 15.5783 5.49334 15.6858 5.23255C15.7934 4.97177 15.9644 4.75113 16.1787 4.59655C16.3931 4.44196 16.6419 4.35984 16.896 4.35981L20.6888 4.35935C21.4265 4.35926 22.0247 5.03666 22.0247 5.87236L22.0251 9.68188L22.0221 9.68178" stroke="#F45800" stroke-miterlimit="10" stroke-linecap="round" stroke-linejoin="round"/>
<path d="M20.9497 14.3723H16.0874C15.9758 14.3723 15.8688 14.4212 15.7899 14.5081C15.711 14.5951 15.6667 14.713 15.6667 14.8359V17.0552C15.6667 17.1781 15.711 17.296 15.7899 17.383C15.8688 17.4699 15.9758 17.5187 16.0874 17.5187H20.9497C21.0613 17.5187 21.1683 17.4699 21.2472 17.383C21.3261 17.296 21.3704 17.1781 21.3704 17.0552V14.8359C21.3704 14.713 21.3261 14.5951 21.2472 14.5081C21.1683 14.4212 21.0613 14.3723 20.9497 14.3723Z" stroke="#F45800" stroke-miterlimit="10" stroke-linecap="round" stroke-linejoin="round"/>
<path d="M17.2963 7.29285H20.5556" stroke="#F45800" stroke-miterlimit="10" stroke-linecap="round" stroke-linejoin="round"/>
<path d="M17.2963 2.57324H20.5556" stroke="#F45800" stroke-miterlimit="10" stroke-linecap="round" stroke-linejoin="round"/>
</svg>
