<svg width="16" height="16" viewBox="0 0 16 16" fill="none" xmlns="http://www.w3.org/2000/svg">
<path d="M10.5549 3.36574C10.587 3.37533 10.6207 3.37845 10.654 3.37491C10.6873 3.37136 10.7196 3.36124 10.7489 3.34511C10.7783 3.32898 10.8041 3.30718 10.825 3.28096C10.8458 3.25475 10.8613 3.22466 10.8704 3.19243C10.8795 3.1602 10.8821 3.12647 10.8781 3.09322C10.874 3.05997 10.8634 3.02786 10.8469 2.99874C10.8303 2.96963 10.8081 2.9441 10.7816 2.92364C10.7551 2.90318 10.7248 2.88819 10.6924 2.87955C9.75803 2.6154 8.62469 2.9743 7.805 3.79393C6.98534 4.61352 6.62634 5.74674 6.89056 6.6809C6.90554 6.73382 6.93737 6.78042 6.98122 6.81361C7.02507 6.84681 7.07856 6.86479 7.13356 6.86484C7.17263 6.86486 7.21117 6.85583 7.24615 6.83845C7.28113 6.82107 7.31161 6.79581 7.33518 6.76466C7.35876 6.73351 7.37479 6.69731 7.38201 6.65892C7.38923 6.62053 7.38745 6.58099 7.37681 6.5434C7.16159 5.78249 7.46994 4.84349 8.16237 4.15121C8.85475 3.4589 9.794 3.15068 10.5549 3.36574Z" fill="black" fill-opacity="0.75"/>
<path d="M8.27912 1.60242C7.67412 1.83995 7.13247 2.19523 6.66925 2.65839C4.829 4.49842 4.829 7.49233 6.66925 9.33239C7.56075 10.2237 8.74597 10.7146 10.0067 10.7146C11.2674 10.7146 12.4526 10.2237 13.3441 9.33236C15.1843 7.49233 15.1843 4.49839 13.3441 2.65842C12.8144 2.12883 12.16 1.72883 11.4514 1.5017C10.766 1.28201 10.0266 1.22164 9.31272 1.32717C9.2799 1.33202 9.24836 1.34328 9.21989 1.36032C9.19143 1.37736 9.1666 1.39984 9.14683 1.42648C9.12705 1.45312 9.11272 1.48339 9.10465 1.51557C9.09658 1.54775 9.09492 1.5812 9.09978 1.61401C9.12016 1.75205 9.24913 1.84764 9.38666 1.82695C10.7219 1.62961 12.0338 2.06289 12.9867 3.01561C14.6299 4.65861 14.6299 7.33201 12.9867 8.97501C12.1907 9.77095 11.1323 10.2093 10.0067 10.2093C8.88094 10.2093 7.82256 9.77092 7.02659 8.97505C5.38337 7.33205 5.38337 4.65864 7.02659 3.01564C7.44037 2.60189 7.92391 2.28467 8.46381 2.0727C8.52618 2.04821 8.57627 1.99995 8.60306 1.93853C8.62985 1.87712 8.63114 1.80757 8.60666 1.7452C8.55559 1.61526 8.40881 1.55151 8.27912 1.60242Z" fill="black" fill-opacity="0.75"/>
<path d="M14.2466 1.75603C13.1141 0.623625 11.6083 0 10.0068 0C8.40509 0 6.89934 0.623625 5.76687 1.75594C3.61091 3.91163 3.44331 7.31416 5.26375 9.66387L4.32144 10.6061C4.2287 10.5762 4.13185 10.561 4.03441 10.5611C3.78631 10.5611 3.55312 10.6577 3.37781 10.833L2.97506 11.2357C2.92907 11.2834 2.90363 11.3472 2.90422 11.4134C2.90481 11.4796 2.93138 11.543 2.97822 11.5898C3.02505 11.6367 3.0884 11.6632 3.15463 11.6638C3.22086 11.6644 3.28468 11.639 3.33234 11.593L3.73513 11.1903C3.77433 11.1509 3.82097 11.1197 3.87234 11.0984C3.92371 11.0771 3.97878 11.0662 4.03438 11.0664C4.14747 11.0664 4.25372 11.1104 4.33362 11.1903L4.81175 11.6684C4.97647 11.833 4.97647 12.1009 4.81175 12.2656L1.70575 15.3712C1.54078 15.5362 1.27225 15.5362 1.10722 15.3712L0.629125 14.8931C0.589771 14.854 0.558569 14.8075 0.537327 14.7562C0.516085 14.705 0.505224 14.65 0.505375 14.5945C0.505375 14.4817 0.549313 14.3757 0.629125 14.2959L2.70062 12.2246C2.72408 12.2011 2.74269 12.1733 2.75539 12.1426C2.76808 12.112 2.77461 12.0791 2.77461 12.0459C2.77461 12.0128 2.76807 11.9799 2.75537 11.9492C2.74267 11.9186 2.72406 11.8907 2.70059 11.8673C2.67713 11.8438 2.64928 11.8252 2.61862 11.8125C2.58797 11.7998 2.55511 11.7933 2.52193 11.7933C2.48875 11.7933 2.4559 11.7998 2.42524 11.8125C2.39459 11.8252 2.36674 11.8438 2.34328 11.8673L0.271812 13.9386C0.0965312 14.1138 0 14.3468 0 14.5945C0 14.8423 0.0965 15.0753 0.27175 15.2504L0.749844 15.7285C0.930875 15.9095 1.16869 16 1.40644 16C1.64425 16 1.88206 15.9095 2.06309 15.7285L5.16909 12.6229C5.42369 12.3683 5.49906 12.0013 5.39522 11.6802L6.33719 10.7383C7.16494 11.3817 8.139 11.7918 9.19219 11.9354C10.4562 12.1078 11.7656 11.8678 12.8792 11.2597C12.938 11.2275 12.9817 11.1734 13.0005 11.1091C13.0194 11.0448 13.0119 10.9756 12.9798 10.9168C12.9477 10.858 12.8935 10.8144 12.8293 10.7955C12.765 10.7767 12.6958 10.7841 12.637 10.8162C10.5144 11.9753 7.83622 11.5893 6.12419 9.87737C3.98331 7.73678 3.98331 4.25384 6.12419 2.11322C7.16122 1.07628 8.54009 0.505188 10.0067 0.505188C11.4733 0.505188 12.8522 1.07628 13.8892 2.11319C16.03 4.25381 16.03 7.73678 13.8892 9.87734C13.7443 10.0222 13.5915 10.159 13.4316 10.2871C13.4057 10.3078 13.3841 10.3334 13.3681 10.3625C13.3521 10.3916 13.3419 10.4235 13.3383 10.4565C13.3346 10.4894 13.3375 10.5228 13.3467 10.5547C13.356 10.5866 13.3714 10.6163 13.3921 10.6422C13.4129 10.6681 13.4385 10.6897 13.4676 10.7057C13.4966 10.7217 13.5286 10.7318 13.5615 10.7355C13.5945 10.7391 13.6279 10.7363 13.6598 10.727C13.6916 10.7178 13.7214 10.7024 13.7473 10.6816C13.9218 10.5419 14.0885 10.3927 14.2466 10.2346C16.5845 7.89712 16.5845 4.09356 14.2466 1.75603ZM5.76681 10.2347C5.82672 10.2946 5.88786 10.3533 5.95019 10.4107L5.10938 11.2514L4.75 10.8921L5.59084 10.0513C5.64824 10.1136 5.7069 10.1748 5.76681 10.2347Z" fill="black" fill-opacity="0.75"/>
</svg>
