<svg width="28" height="28" viewBox="0 0 28 28" fill="none" xmlns="http://www.w3.org/2000/svg">
<g filter="url(#filter0_d_142_14)">
<path d="M25.9998 13.5929C25.9992 13.5913 25.9981 13.5896 25.9978 13.588C25.9926 13.1519 25.9602 12.7167 25.9006 12.2847C25.421 8.84084 23.6305 5.89722 21.1063 3.87911C21.0829 3.84752 21.0529 3.82147 21.0183 3.80283C21.014 3.80036 21.0096 3.80063 21.0043 3.79844C18.3027 1.68182 14.781 0.616927 11.1195 1.12564C11.1148 1.12619 11.1118 1.12893 11.1077 1.12976C11.1036 1.13058 11.0995 1.12921 11.0953 1.13003C11.0811 1.13332 11.0698 1.1421 11.0566 1.14759C11.0396 1.15445 11.0223 1.15994 11.0072 1.17009C10.9921 1.17997 10.9808 1.19259 10.9682 1.20521C10.9555 1.21756 10.9429 1.22853 10.9327 1.2428C10.9226 1.25762 10.9168 1.27381 10.9096 1.29027C10.9028 1.30619 10.8951 1.321 10.8912 1.33829C10.8871 1.3564 10.8882 1.37506 10.8879 1.39426C10.8877 1.40798 10.8835 1.42115 10.8855 1.43515C10.886 1.43926 10.8888 1.44228 10.8893 1.4464C10.8901 1.45079 10.8888 1.4549 10.8896 1.45929L11.3151 3.29494C5.99799 4.07968 2 8.70117 2 14.0874C2 20.1049 6.90066 25 12.9246 25C14.1654 25 15.3809 24.7942 16.5416 24.3884C16.5864 24.3721 16.6262 24.3443 16.6568 24.3078C16.6875 24.2713 16.708 24.2273 16.7163 24.1804C16.783 24.1724 16.85 24.1686 16.9176 24.1596C18.5624 23.9322 20.1294 23.3171 21.4892 22.3653C21.5148 22.3541 21.5383 22.3387 21.559 22.3198C21.5612 22.3181 21.5612 22.3154 21.5636 22.314C24.315 20.3563 26.0404 17.1322 25.9992 13.6204C25.9976 13.6108 26.0009 13.6014 25.9998 13.5929ZM25.3572 12.3598C25.4061 12.7083 25.4347 13.0554 25.4465 13.4L19.4504 14.3159C19.4451 14.1872 19.4338 14.0587 19.4166 13.931C19.24 12.6549 18.6202 11.4815 17.6654 10.6156L20.9703 4.47315C23.2805 6.39989 24.9106 9.15501 25.3572 12.3598ZM15.523 18.4339C15.5175 18.435 15.5128 18.4345 15.5073 18.4356L15.3211 16.7975C15.5862 16.7232 15.833 16.5949 16.0461 16.4208C16.2592 16.2466 16.434 16.0304 16.5594 15.7856L18.3507 16.5574C17.7607 17.5427 16.7473 18.2635 15.523 18.4339ZM10.5437 21.7455C9.09305 20.4894 8.15577 18.7739 7.88876 16.8573C7.76014 15.9295 7.84162 14.9847 8.1272 14.0926L11.6964 14.3338C11.4912 14.8216 11.4216 15.3556 11.4948 15.8797C11.6136 16.737 12.0369 17.5231 12.6875 18.0948L10.5437 21.7455ZM13.2548 9.76497C13.7555 9.69555 14.2492 9.7046 14.7244 9.78061L14.4772 12.5179C14.3257 12.5104 14.1739 12.517 14.0236 12.5376C13.6377 12.5902 13.266 12.7188 12.9301 12.9158C12.5943 13.1129 12.3009 13.3746 12.067 13.6857C12.0381 13.7241 12.0134 13.7639 11.9867 13.8039L8.32663 13.5564C8.52825 13.0745 8.78881 12.6193 9.10239 12.2012C10.1149 10.8617 11.5898 9.99655 13.2548 9.76497ZM18.8718 14.0059C18.969 14.7044 18.8743 15.4161 18.5977 16.0649L16.7391 15.2642C16.7808 15.0527 16.7907 14.8307 16.7594 14.6054C16.7165 14.2897 16.6112 13.9857 16.4497 13.711C16.2883 13.4362 16.0738 13.1962 15.8188 13.0049C15.5791 12.8242 15.3078 12.6895 15.0189 12.6076L15.2647 9.89942C17.1195 10.4144 18.5908 11.9831 18.8718 14.0059ZM12.0387 15.8034C11.8552 14.4855 12.779 13.2648 14.0981 13.0815C14.3423 13.047 14.5909 13.0612 14.8296 13.1232C15.0683 13.1853 15.2923 13.294 15.4886 13.4431C15.6858 13.591 15.8516 13.7765 15.9764 13.989C16.1012 14.2014 16.1825 14.4365 16.2155 14.6806C16.2679 15.06 16.1675 15.4448 15.9364 15.7504C15.7053 16.0561 15.3623 16.2578 14.9826 16.3113C14.9656 16.3135 14.9527 16.322 14.937 16.3275C14.9186 16.3332 14.8983 16.3371 14.8824 16.3467C14.8673 16.3552 14.8565 16.3681 14.8431 16.3793C14.8296 16.3911 14.8145 16.4013 14.803 16.4158C14.7923 16.4298 14.7859 16.4463 14.7788 16.4625C14.7708 16.4781 14.7612 16.4918 14.7557 16.5091C14.75 16.5267 14.7516 16.5467 14.75 16.5654C14.7489 16.5824 14.7442 16.5975 14.7458 16.6142L14.956 18.4581C13.5003 18.3909 12.2472 17.2974 12.0387 15.8034ZM20.5335 4.12578L17.233 10.2608C16.603 9.79502 15.8812 9.46807 15.1153 9.30153C15.0928 9.29302 15.0708 9.28315 15.0455 9.28068C15.0398 9.28013 15.0343 9.28287 15.0282 9.2826C14.4438 9.1639 13.8438 9.1411 13.252 9.2151L11.4942 1.63517C14.834 1.25241 18.0365 2.22373 20.5335 4.12578ZM2.54913 14.0874C2.54913 8.95745 6.36774 4.55684 11.4393 3.83081L12.7087 9.30565C11.0929 9.64104 9.65479 10.5528 8.66314 11.8703C7.56104 13.3273 7.09295 15.1251 7.34485 16.9328C7.63493 19.0173 8.66561 20.8798 10.2616 22.2281C10.238 22.2698 10.2257 22.317 10.2259 22.3649C10.2262 22.4129 10.239 22.4599 10.2631 22.5013C10.2873 22.5428 10.3218 22.5772 10.3634 22.6011C10.405 22.6251 10.4521 22.6377 10.5001 22.6378C10.5685 22.6378 10.6349 22.6106 10.686 22.5634C11.9988 23.5403 13.53 24.1033 15.1266 24.2169C14.4029 24.3732 13.6645 24.4518 12.924 24.4512C7.20338 24.4504 2.54913 19.8017 2.54913 14.0874ZM16.8413 23.6152C14.7475 23.906 12.6642 23.3674 10.975 22.0959L13.1287 18.429C13.7625 18.8398 14.5092 19.0419 15.2639 19.0069H15.265C15.2754 19.0069 15.2858 19.0063 15.2961 19.0049C15.2988 19.0044 15.2999 19.0033 15.3018 19.0027C15.4004 18.997 15.4991 18.9904 15.598 18.9769C16.193 18.8946 16.7653 18.693 17.2805 18.3843L20.9346 22.0789C19.7013 22.8883 18.303 23.4131 16.8413 23.6152ZM21.3925 21.7614L17.7371 18.0654C18.2545 17.6605 18.677 17.1474 18.9749 16.5621C18.9806 16.5533 18.9883 16.5448 18.9919 16.5338C18.993 16.5316 18.9924 16.53 18.9935 16.528C19.2507 16.0107 19.4045 15.4482 19.4462 14.8721L25.449 13.9546C25.3814 17.0916 23.8305 19.9584 21.3925 21.7614Z" fill="#ABABAB"/>
</g>
<defs>
<filter id="filter0_d_142_14" x="0" y="0" width="28" height="28" filterUnits="userSpaceOnUse" color-interpolation-filters="sRGB">
<feFlood flood-opacity="0" result="BackgroundImageFix"/>
<feColorMatrix in="SourceAlpha" type="matrix" values="0 0 0 0 0 0 0 0 0 0 0 0 0 0 0 0 0 0 127 0" result="hardAlpha"/>
<feOffset dy="1"/>
<feGaussianBlur stdDeviation="1"/>
<feComposite in2="hardAlpha" operator="out"/>
<feColorMatrix type="matrix" values="0 0 0 0 0.958333 0 0 0 0 0.660771 0 0 0 0 0.311458 0 0 0 0.9 0"/>
<feBlend mode="normal" in2="BackgroundImageFix" result="effect1_dropShadow_142_14"/>
<feBlend mode="normal" in="SourceGraphic" in2="effect1_dropShadow_142_14" result="shape"/>
</filter>
</defs>
</svg>
